<svg width="470" height="497" viewBox="0 0 470 497" fill="none" xmlns="http://www.w3.org/2000/svg">
<g filter="url(#filter0_f_1425_75)">
<path d="M53.6461 59.6484C44.8416 69.8888 40 82.9464 40 96.4513V206.08V256.665V337.536C40 349.146 41.6923 360.693 45.0235 371.815C60.1665 422.371 106.688 457 159.464 457H175.673H310.379C324.909 457 339.306 454.23 352.798 448.838C386.824 435.239 412.268 406.151 421.219 370.618L425.33 354.3C429.087 339.386 430.484 323.975 429.472 308.628L417.417 125.961C416.797 116.563 414.738 107.316 411.311 98.5425C397.522 63.2384 363.498 40 325.596 40H160.123L96.4508 40.0003C80.0014 40.0004 64.3702 47.1754 53.6461 59.6484Z" fill="#B48CBE" fill-opacity="0.6"/>
</g>
<defs>
<filter id="filter0_f_1425_75" x="0" y="0" width="469.791" height="497" filterUnits="userSpaceOnUse" color-interpolation-filters="sRGB">
<feFlood flood-opacity="0" result="BackgroundImageFix"/>
<feBlend mode="normal" in="SourceGraphic" in2="BackgroundImageFix" result="shape"/>
<feGaussianBlur stdDeviation="20" result="effect1_foregroundBlur_1425_75"/>
</filter>
</defs>
</svg>
