<svg width="491" height="515" viewBox="0 0 491 515" fill="none" xmlns="http://www.w3.org/2000/svg">
<g filter="url(#filter0_f_1425_71)">
<path d="M114.381 47.2447C81.9812 61.2334 61 93.1455 61 128.436V161.684C61 173.697 59.4427 185.66 56.367 197.272L49.5 223.2L41.9349 272.572C40.6468 280.979 40 289.471 40 297.976V324.731C40 402.586 103.114 465.7 180.969 465.7L317.847 473.7C377.538 479.017 430.87 436.485 438.967 377.107L448.769 305.226C450.585 291.914 450.969 278.445 449.916 265.051L437.403 105.822C437.135 102.413 436.587 99.0323 435.766 95.7133C429.092 68.7502 405.405 49.44 377.65 48.3351L180.969 40.5052L150.885 40.0121C138.342 39.8065 125.898 42.272 114.381 47.2447Z" fill="#E4DC35" fill-opacity="0.7"/>
</g>
<defs>
<filter id="filter0_f_1425_71" x="0" y="0" width="490.495" height="514.148" filterUnits="userSpaceOnUse" color-interpolation-filters="sRGB">
<feFlood flood-opacity="0" result="BackgroundImageFix"/>
<feBlend mode="normal" in="SourceGraphic" in2="BackgroundImageFix" result="shape"/>
<feGaussianBlur stdDeviation="20" result="effect1_foregroundBlur_1425_71"/>
</filter>
</defs>
</svg>
