<svg width="471" height="515" viewBox="0 0 471 515" fill="none" xmlns="http://www.w3.org/2000/svg">
<g filter="url(#filter0_f_1425_74)">
<path d="M93.0187 48.8841C61.585 63.9397 41.5819 95.6996 41.5819 130.553V194.83V245.71V311.634L40.7906 319.179C30.8367 414.089 116.491 491.03 209.793 470.989C219.477 468.909 229.354 467.86 239.258 467.86H320.634C330.315 467.86 339.948 466.518 349.26 463.872C390.284 452.217 420.146 416.853 424.765 374.456L429.903 327.284C431.037 316.872 431.235 306.379 430.495 295.932L421.221 165.034C418.608 128.138 400.858 93.9646 372.176 70.6082C348.275 51.1446 318.394 40.517 287.571 40.517H161.406L133.781 40.0147C119.689 39.7584 105.731 42.7955 93.0187 48.8841Z" fill="#F6836E" fill-opacity="0.6"/>
</g>
<defs>
<filter id="filter0_f_1425_74" x="0" y="0" width="470.933" height="514.188" filterUnits="userSpaceOnUse" color-interpolation-filters="sRGB">
<feFlood flood-opacity="0" result="BackgroundImageFix"/>
<feBlend mode="normal" in="SourceGraphic" in2="BackgroundImageFix" result="shape"/>
<feGaussianBlur stdDeviation="20" result="effect1_foregroundBlur_1425_74"/>
</filter>
</defs>
</svg>
